<svg xmlns="http://www.w3.org/2000/svg" viewBox="0 0 64 64" fill="none" shape-rendering="auto"><metadata xmlnsRdf="http://www.w3.org/1999/02/22-rdf-syntax-ns#" xmlnsXsi="http://www.w3.org/2001/XMLSchema-instance" xmlnsDc="http://purl.org/dc/elements/1.1/" xmlnsDcterms="http://purl.org/dc/terms/"><rdfRDF><rdfDescription><dcTitle>Miniavs - Free Avatar Creator</dcTitle><dcCreator>Webpixels</dcCreator><dcSource xsiType="dcterms:URI">https://www.figma.com/community/file/923211396597067458</dcSource><dctermsLicense xsiType="dcterms:URI">https://creativecommons.org/licenses/by/4.0/</dctermsLicense><dcRights>Remix of „Miniavs - Free Avatar Creator” (https://www.figma.com/community/file/923211396597067458) by „Webpixels”, licensed under „CC BY 4.0” (https://creativecommons.org/licenses/by/4.0/)</dcRights></rdfDescription></rdfRDF></metadata><mask id="viewboxMask"><rect width="64" height="64" rx="0" ry="0" x="0" y="0" fill="#fff" /></mask><g mask="url(#viewboxMask)"><path d="M46.07 40.4c.47 7.5.94 15-11.07 15.56v9.91S31.36 68 26.5 68c-4.86 0-8.5-3.48-8.5-3.48V45.1c-.2-1.02-.33-2.06-.41-3.12a5 5 0 0 1-.9-9.8C15.37 22.63 17.52 13 32 13c14.59 0 14.24 11.08 13.96 19.81-.04 1.15-.07 2.25-.07 3.29 0 1.4.09 2.86.18 4.3Z" fill="#f5d0c5"/><path d="M17.59 41.98c-.16-1.97-.16-3.97-.16-5.88a46.7 46.7 0 0 1-.73-3.93 5 5 0 0 0 .89 9.81ZM18 45.1v19.42S21.64 68 26.5 68c4.86 0 8.5-2.13 8.5-2.13v-9.91c-.48.02-.98.03-1.5.03-10.79 0-14.34-4.95-15.5-10.9Z" fill="#000" fill-opacity=".07"/><path d="M34.93 55.96c-.46.02-.93.03-1.43.03-7.25 0-11.23-2.23-13.41-5.5.5 4.82 3.16 8.5 8.3 8.5h1.36c3.8.03 4.92.04 5.18-3.03Z" fill="#000" fill-opacity=".07"/><rect x="36" y="41" width="3" height="2" rx="1" fill="#000" fill-opacity=".07"/><rect x="7" y="60" width="40" height="23" rx="9" fill="#e05a33"/><g fill="#ad3a20"><path d="M45.97 32.48a4 4 0 0 0 1.78-4.88 4 4 0 0 0-2.97-7.41c1.42 3.67 1.31 8.22 1.19 12.3Z"/><path d="M36.3 22.76a4.98 4.98 0 0 1-6.36.2 6.98 6.98 0 0 1-6.99 1.74c-.26.28-.56.53-.89.73a3.98 3.98 0 0 1-1.35 6.19c.2.24.3.55.3.88a1.5 1.5 0 0 1-1.53 1.5 4 4 0 0 1-7.3-3.17 3.99 3.99 0 0 1 0-5.66 4 4 0 0 1 .74-3.71 7 7 0 0 1 4.1-10.17V11a4 4 0 0 1 5.94-3.5 7 7 0 0 1 9.8-2.42 6.48 6.48 0 0 1 10.78 1.95 4 4 0 0 1 3.43 4.58 7.33 7.33 0 0 1 3.05 5.9c0 4.14-3.58 7.5-8 7.5a8.25 8.25 0 0 1-5.7-2.24Z"/></g><g transform="translate(1)"><path d="M27.93 46a1 1 0 0 1 1-1h9.14a1 1 0 0 1 1 1 5 5 0 0 1-5 5h-1.14a5 5 0 0 1-5-5Z" fill="#66253C"/><path d="M35.76 50.7a5 5 0 0 1-1.69.3h-1.14a5 5 0 0 1-5-4.8c.77-.29 1.9-.25 3.02-.22L32 46c2.21 0 4 1.57 4 3.5 0 .42-.09.83-.24 1.2Z" fill="#B03E67"/><path d="M29 45h10v1a1 1 0 0 1-1 1h-8a1 1 0 0 1-1-1v-1Z" fill="#fff"/></g><g transform="translate(0 -1)"><path d="M43 37.5a1.5 1.5 0 0 1-3 0v-1.23c0-.15.12-.27.27-.27h2.46c.15 0 .27.12.27.27v1.23ZM33 37.5a1.5 1.5 0 0 1-3 0v-1.23c0-.15.12-.27.27-.27h2.46c.15 0 .27.12.27.27v1.23Z" fill="#ad3a20"/><path stroke="#ad3a20" stroke-linecap="round" d="M29.5 36.5h4M39.5 36.5h4"/></g></g></svg>